# xmcd
#
# Track frame offsets:
#	183
#	29138
#	40713
#	52750
#	63628
#	74853
#	87675
#	101530
#	113498
#	129143
#	143210
#	155323
#	165778
#	179390
#
# Disc length: 2550 seconds
#
# Revision: 0
# Processed by: cddbd v1.4PL0 Copyright (c) Steve Scherf et al.
# Submitted via: EasyCDDAExtractor 4.6.0.1
#
DISCID=ba09f40e
DTITLE=Ray Charles - 28 Greatest Hits
DYEAR=1900
DGENRE=Blues
TTITLE0=What'd I say
TTITLE1=See see rider
TTITLE2=Tell me how so you feel
TTITLE3=I wonder who's kissing her now
TTITLE4=You be my baby
TTITLE5=Can anyone ask for more
TTITLE6=Oh baby
TTITLE7=Can't see you darling
TTITLE8=I found my baby there
TTITLE9=Blues is my middle name
TTITLE10=Goin' down slow
TTITLE11=Hey now
TTITLE12=I'm gonna drown myself
TTITLE13=I won't let you go
EXTD=
EXTT0=
EXTT1=
EXTT2=
EXTT3=
EXTT4=
EXTT5=
EXTT6=
EXTT7=
EXTT8=
EXTT9=
EXTT10=
EXTT11=
EXTT12=
EXTT13=
PLAYORDER=
